<svg width="1373" height="1141" viewBox="0 0 1373 1141" fill="none" xmlns="http://www.w3.org/2000/svg">
<path d="M686.5 0L686.633 526.694L949.214 40.1315L686.882 526.774L1171.93 154.417L687.07 526.919L1320.74 325.456L687.175 527.11L1373 527.212L687.175 527.314L1320.74 728.969L687.07 527.506L1245.42 975.109L686.882 527.65L973 1104L686.633 527.731L686.5 1141L686.367 527.731L406 1084.5L686.118 527.65L117.454 1010.88L685.93 527.506L52.2565 728.969L685.825 527.314L0 527.212L685.825 527.11L52.2565 325.456L685.93 526.919L201.071 154.417L686.118 526.774L423.786 40.1315L686.367 526.694L686.5 0Z" stroke="url(#paint0_radial_9_96)" stroke-opacity="0.5"/>
<defs>
<radialGradient id="paint0_radial_9_96" cx="0" cy="0" r="1" gradientUnits="userSpaceOnUse" gradientTransform="translate(687.746 528.333) rotate(90.054) scale(791.947 749.376)">
<stop/>
<stop offset="0.728746" stop-color="#A3A3A3" stop-opacity="0.02"/>
<stop offset="1" stop-color="#8D8D8D" stop-opacity="0"/>
<stop offset="1" stop-color="#959595" stop-opacity="0"/>
</radialGradient>
</defs>
</svg>
